<svg xmlns="http://www.w3.org/2000/svg" width="1024" height="1024" viewBox="0 0 1024 1024">
  <!-- Dark mode: black background, white strokes -->
  <rect x="0" y="0" width="1024" height="1024" fill="#000000"/>
  <!-- Rounded square border -->
  <rect x="64" y="64" width="896" height="896" rx="224" ry="224" fill="none" stroke="#ffffff" stroke-width="48"/>
  <!-- Vinyl record circle (outer) -->
  <circle cx="512" cy="512" r="384" fill="none" stroke="#ffffff" stroke-width="40"/>
  <!-- VHS inner hub circle -->
  <circle cx="512" cy="512" r="160" fill="none" stroke="#ffffff" stroke-width="24"/>
  <!-- VHS rivets/teeth around the inner hub (12 rivets evenly spaced) -->
  <!-- Rivet at 0 degrees (right) -->
  <rect x="608" y="500" width="40" height="24" rx="4" fill="#ffffff"/>
  <!-- Rivet at 30 degrees -->
  <rect x="608" y="500" width="40" height="24" rx="4" fill="#ffffff" transform="rotate(30 512 512)"/>
  <!-- Rivet at 60 degrees -->
  <rect x="608" y="500" width="40" height="24" rx="4" fill="#ffffff" transform="rotate(60 512 512)"/>
  <!-- Rivet at 90 degrees (top) -->
  <rect x="608" y="500" width="40" height="24" rx="4" fill="#ffffff" transform="rotate(90 512 512)"/>
  <!-- Rivet at 120 degrees -->
  <rect x="608" y="500" width="40" height="24" rx="4" fill="#ffffff" transform="rotate(120 512 512)"/>
  <!-- Rivet at 150 degrees -->
  <rect x="608" y="500" width="40" height="24" rx="4" fill="#ffffff" transform="rotate(150 512 512)"/>
  <!-- Rivet at 180 degrees (left) -->
  <rect x="608" y="500" width="40" height="24" rx="4" fill="#ffffff" transform="rotate(180 512 512)"/>
  <!-- Rivet at 210 degrees -->
  <rect x="608" y="500" width="40" height="24" rx="4" fill="#ffffff" transform="rotate(210 512 512)"/>
  <!-- Rivet at 240 degrees -->
  <rect x="608" y="500" width="40" height="24" rx="4" fill="#ffffff" transform="rotate(240 512 512)"/>
  <!-- Rivet at 270 degrees (bottom) -->
  <rect x="608" y="500" width="40" height="24" rx="4" fill="#ffffff" transform="rotate(270 512 512)"/>
  <!-- Rivet at 300 degrees -->
  <rect x="608" y="500" width="40" height="24" rx="4" fill="#ffffff" transform="rotate(300 512 512)"/>
  <!-- Rivet at 330 degrees -->
  <rect x="608" y="500" width="40" height="24" rx="4" fill="#ffffff" transform="rotate(330 512 512)"/>
  <!-- Center dot -->
  <circle cx="512" cy="512" r="40" fill="#ffffff"/>
</svg>
